<svg xmlns="http://www.w3.org/2000/svg" width="250" height="250" viewBox="0 0 250 250" fill="none">
<circle cx="125" cy="125" r="125" fill="#FFA500"/>
<path d="M29.027 158.48C29.027 156.005 29.7523 153.147 31.203 149.904C32.6537 146.576 34.2323 144.315 35.939 143.12C39.1817 145.509 42.467 146.704 45.795 146.704L49.763 146.064C54.371 144.699 56.7603 141.029 56.931 135.056V102.416H46.691C45.2403 102.416 44.2163 100.581 43.619 96.912C43.363 95.12 43.235 93.2853 43.235 91.408C43.235 89.5307 43.363 87.696 43.619 85.904C44.2163 82.2347 45.2403 80.4 46.691 80.4H77.155C78.8617 80.4 80.1417 80.912 80.995 81.936C81.8483 82.8747 82.275 84.0267 82.275 85.392V145.808C82.275 154.171 79.459 160.528 73.827 164.88C68.2803 169.232 61.5817 171.408 53.731 171.408C45.9657 171.408 39.907 170.256 35.555 167.952C31.203 165.648 29.027 162.491 29.027 158.48ZM156.248 103.568C156.248 112.443 152.408 119.184 144.728 123.792C148.909 125.328 152.408 127.973 155.224 131.728C158.04 135.483 159.448 140.816 159.448 147.728C159.448 154.555 156.888 159.973 151.768 163.984C146.733 167.995 139.48 170 130.008 170H99.8C98.3493 170 97.1547 169.531 96.216 168.592C95.2773 167.568 94.808 166.245 94.808 164.624V82.704C94.808 81.7653 94.936 81.168 95.192 80.912C95.5333 80.5707 96.1733 80.4 97.112 80.4H126.296C146.264 80.4 156.248 88.1227 156.248 103.568ZM119.384 101.136V117.904H120.024C128.216 117.904 132.312 115.173 132.312 109.712C132.312 106.725 131.501 104.549 129.88 103.184C128.344 101.819 125.741 101.136 122.072 101.136H119.384ZM119.384 133.008V149.648H121.688C125.357 149.648 128.045 148.965 129.752 147.6C131.459 146.235 132.312 144.059 132.312 141.072C132.312 138.085 131.501 135.995 129.88 134.8C128.344 133.605 125.741 133.008 122.072 133.008H119.384ZM164.152 158.48C164.152 156.005 164.877 153.147 166.328 149.904C167.779 146.576 169.357 144.315 171.064 143.12C174.307 145.509 177.592 146.704 180.92 146.704L184.888 146.064C189.496 144.699 191.885 141.029 192.056 135.056V102.416H181.816C180.365 102.416 179.341 100.581 178.744 96.912C178.488 95.12 178.36 93.2853 178.36 91.408C178.36 89.5307 178.488 87.696 178.744 85.904C179.341 82.2347 180.365 80.4 181.816 80.4H212.28C213.987 80.4 215.267 80.912 216.12 81.936C216.973 82.8747 217.4 84.0267 217.4 85.392V145.808C217.4 154.171 214.584 160.528 208.952 164.88C203.405 169.232 196.707 171.408 188.856 171.408C181.091 171.408 175.032 170.256 170.68 167.952C166.328 165.648 164.152 162.491 164.152 158.48Z" fill="white"/>
</svg>